<mxfile host="app.diagrams.net" agent="Mozilla/5.0 (Windows NT 10.0; Win64; x64) AppleWebKit/537.36 (KHTML, like Gecko) Chrome/129.0.0.0 Safari/537.36 Edg/129.0.0.0" version="24.7.17">
  <diagram name="Page-1" id="gB2DMr0biQ5MFpnPCHbU">
    <mxGraphModel dx="2972" dy="1257" grid="1" gridSize="10" guides="1" tooltips="1" connect="1" arrows="0" fold="1" page="1" pageScale="1" pageWidth="850" pageHeight="1100" math="0" shadow="0">
      <root>
        <mxCell id="0" />
        <mxCell id="1" parent="0" />
        <mxCell id="8ar8h3lFPwf3H2jaZOHm-42" style="rounded=0;orthogonalLoop=1;jettySize=auto;html=1;exitX=0;exitY=0.5;exitDx=0;exitDy=0;endArrow=none;endFill=0;" edge="1" parent="1" source="8ar8h3lFPwf3H2jaZOHm-1" target="8ar8h3lFPwf3H2jaZOHm-13">
          <mxGeometry relative="1" as="geometry" />
        </mxCell>
        <mxCell id="8ar8h3lFPwf3H2jaZOHm-44" style="rounded=0;orthogonalLoop=1;jettySize=auto;html=1;exitX=0.25;exitY=0;exitDx=0;exitDy=0;entryX=0.5;entryY=1;entryDx=0;entryDy=0;endArrow=none;endFill=0;" edge="1" parent="1" source="8ar8h3lFPwf3H2jaZOHm-1" target="8ar8h3lFPwf3H2jaZOHm-9">
          <mxGeometry relative="1" as="geometry" />
        </mxCell>
        <mxCell id="8ar8h3lFPwf3H2jaZOHm-45" style="rounded=0;orthogonalLoop=1;jettySize=auto;html=1;exitX=0.5;exitY=0;exitDx=0;exitDy=0;entryX=0.5;entryY=1;entryDx=0;entryDy=0;endArrow=none;endFill=0;" edge="1" parent="1" source="8ar8h3lFPwf3H2jaZOHm-1" target="8ar8h3lFPwf3H2jaZOHm-10">
          <mxGeometry relative="1" as="geometry" />
        </mxCell>
        <mxCell id="8ar8h3lFPwf3H2jaZOHm-46" style="rounded=0;orthogonalLoop=1;jettySize=auto;html=1;exitX=0.75;exitY=0;exitDx=0;exitDy=0;entryX=0.5;entryY=1;entryDx=0;entryDy=0;endArrow=none;endFill=0;" edge="1" parent="1" source="8ar8h3lFPwf3H2jaZOHm-1" target="8ar8h3lFPwf3H2jaZOHm-12">
          <mxGeometry relative="1" as="geometry" />
        </mxCell>
        <mxCell id="8ar8h3lFPwf3H2jaZOHm-1" value="Person" style="whiteSpace=wrap;html=1;align=center;" vertex="1" parent="1">
          <mxGeometry x="-200" y="210" width="100" height="40" as="geometry" />
        </mxCell>
        <mxCell id="8ar8h3lFPwf3H2jaZOHm-2" value="User" style="whiteSpace=wrap;html=1;align=center;" vertex="1" parent="1">
          <mxGeometry x="320" y="240" width="100" height="40" as="geometry" />
        </mxCell>
        <mxCell id="8ar8h3lFPwf3H2jaZOHm-37" style="rounded=0;orthogonalLoop=1;jettySize=auto;html=1;exitX=0;exitY=1;exitDx=0;exitDy=0;entryX=1;entryY=0.25;entryDx=0;entryDy=0;endArrow=none;endFill=0;" edge="1" parent="1" source="8ar8h3lFPwf3H2jaZOHm-3" target="8ar8h3lFPwf3H2jaZOHm-2">
          <mxGeometry relative="1" as="geometry" />
        </mxCell>
        <mxCell id="8ar8h3lFPwf3H2jaZOHm-3" value="Username&amp;nbsp;" style="ellipse;whiteSpace=wrap;html=1;align=center;" vertex="1" parent="1">
          <mxGeometry x="500" y="120" width="100" height="40" as="geometry" />
        </mxCell>
        <mxCell id="8ar8h3lFPwf3H2jaZOHm-39" style="rounded=0;orthogonalLoop=1;jettySize=auto;html=1;exitX=0.5;exitY=1;exitDx=0;exitDy=0;entryX=0.25;entryY=0;entryDx=0;entryDy=0;endArrow=none;endFill=0;" edge="1" parent="1" source="8ar8h3lFPwf3H2jaZOHm-4" target="8ar8h3lFPwf3H2jaZOHm-2">
          <mxGeometry relative="1" as="geometry" />
        </mxCell>
        <mxCell id="8ar8h3lFPwf3H2jaZOHm-4" value="IsActive" style="ellipse;whiteSpace=wrap;html=1;align=center;" vertex="1" parent="1">
          <mxGeometry x="270" y="70" width="100" height="40" as="geometry" />
        </mxCell>
        <mxCell id="8ar8h3lFPwf3H2jaZOHm-38" style="rounded=0;orthogonalLoop=1;jettySize=auto;html=1;exitX=0;exitY=1;exitDx=0;exitDy=0;entryX=0.75;entryY=0;entryDx=0;entryDy=0;endArrow=none;endFill=0;" edge="1" parent="1" source="8ar8h3lFPwf3H2jaZOHm-5" target="8ar8h3lFPwf3H2jaZOHm-2">
          <mxGeometry relative="1" as="geometry" />
        </mxCell>
        <mxCell id="8ar8h3lFPwf3H2jaZOHm-5" value="Password(Hashed)" style="ellipse;whiteSpace=wrap;html=1;align=center;" vertex="1" parent="1">
          <mxGeometry x="385" y="80" width="120" height="40" as="geometry" />
        </mxCell>
        <mxCell id="8ar8h3lFPwf3H2jaZOHm-9" value="FirstName" style="ellipse;whiteSpace=wrap;html=1;align=center;" vertex="1" parent="1">
          <mxGeometry x="-360" y="60" width="100" height="40" as="geometry" />
        </mxCell>
        <mxCell id="8ar8h3lFPwf3H2jaZOHm-10" value="SecondName" style="ellipse;whiteSpace=wrap;html=1;align=center;" vertex="1" parent="1">
          <mxGeometry x="-230" y="60" width="100" height="40" as="geometry" />
        </mxCell>
        <mxCell id="8ar8h3lFPwf3H2jaZOHm-11" value="ThirdName" style="ellipse;whiteSpace=wrap;html=1;align=center;" vertex="1" parent="1">
          <mxGeometry x="-425" y="140" width="100" height="40" as="geometry" />
        </mxCell>
        <mxCell id="8ar8h3lFPwf3H2jaZOHm-12" value="LastName" style="ellipse;whiteSpace=wrap;html=1;align=center;" vertex="1" parent="1">
          <mxGeometry x="-100" y="80" width="100" height="40" as="geometry" />
        </mxCell>
        <mxCell id="8ar8h3lFPwf3H2jaZOHm-13" value="Gender" style="ellipse;whiteSpace=wrap;html=1;align=center;" vertex="1" parent="1">
          <mxGeometry x="-360" y="210" width="100" height="40" as="geometry" />
        </mxCell>
        <mxCell id="8ar8h3lFPwf3H2jaZOHm-15" value="ContactInfo" style="whiteSpace=wrap;html=1;align=center;" vertex="1" parent="1">
          <mxGeometry x="-260" y="390" width="100" height="30" as="geometry" />
        </mxCell>
        <mxCell id="8ar8h3lFPwf3H2jaZOHm-41" style="rounded=0;orthogonalLoop=1;jettySize=auto;html=1;exitX=1;exitY=0.5;exitDx=0;exitDy=0;entryX=0;entryY=0.5;entryDx=0;entryDy=0;endArrow=none;endFill=0;" edge="1" parent="1" source="8ar8h3lFPwf3H2jaZOHm-16" target="8ar8h3lFPwf3H2jaZOHm-15">
          <mxGeometry relative="1" as="geometry" />
        </mxCell>
        <mxCell id="8ar8h3lFPwf3H2jaZOHm-16" value="PhoneNumber" style="ellipse;whiteSpace=wrap;html=1;align=center;" vertex="1" parent="1">
          <mxGeometry x="-425" y="400" width="100" height="40" as="geometry" />
        </mxCell>
        <mxCell id="8ar8h3lFPwf3H2jaZOHm-17" value="Email" style="ellipse;whiteSpace=wrap;html=1;align=center;" vertex="1" parent="1">
          <mxGeometry x="-400" y="480" width="100" height="40" as="geometry" />
        </mxCell>
        <mxCell id="8ar8h3lFPwf3H2jaZOHm-36" style="rounded=0;orthogonalLoop=1;jettySize=auto;html=1;exitX=0.75;exitY=1;exitDx=0;exitDy=0;endArrow=none;endFill=0;" edge="1" parent="1" source="8ar8h3lFPwf3H2jaZOHm-18" target="8ar8h3lFPwf3H2jaZOHm-20">
          <mxGeometry relative="1" as="geometry" />
        </mxCell>
        <mxCell id="8ar8h3lFPwf3H2jaZOHm-18" value="Application" style="whiteSpace=wrap;html=1;align=center;" vertex="1" parent="1">
          <mxGeometry x="480" y="420" width="100" height="40" as="geometry" />
        </mxCell>
        <mxCell id="8ar8h3lFPwf3H2jaZOHm-19" value="ApplicationNumber" style="ellipse;whiteSpace=wrap;html=1;align=center;" vertex="1" parent="1">
          <mxGeometry x="425" y="570" width="120" height="40" as="geometry" />
        </mxCell>
        <mxCell id="8ar8h3lFPwf3H2jaZOHm-35" style="edgeStyle=orthogonalEdgeStyle;rounded=0;orthogonalLoop=1;jettySize=auto;html=1;exitX=0;exitY=0;exitDx=0;exitDy=0;entryX=0.5;entryY=1;entryDx=0;entryDy=0;strokeColor=none;" edge="1" parent="1" source="8ar8h3lFPwf3H2jaZOHm-20" target="8ar8h3lFPwf3H2jaZOHm-18">
          <mxGeometry relative="1" as="geometry" />
        </mxCell>
        <mxCell id="8ar8h3lFPwf3H2jaZOHm-20" value="ApplicationDate" style="ellipse;whiteSpace=wrap;html=1;align=center;" vertex="1" parent="1">
          <mxGeometry x="545" y="520" width="135" height="50" as="geometry" />
        </mxCell>
        <mxCell id="8ar8h3lFPwf3H2jaZOHm-21" value="LicenseClass" style="whiteSpace=wrap;html=1;align=center;" vertex="1" parent="1">
          <mxGeometry x="-300" y="720" width="100" height="40" as="geometry" />
        </mxCell>
        <mxCell id="8ar8h3lFPwf3H2jaZOHm-50" style="rounded=0;orthogonalLoop=1;jettySize=auto;html=1;exitX=0.5;exitY=0;exitDx=0;exitDy=0;entryX=0;entryY=0.5;entryDx=0;entryDy=0;endArrow=none;endFill=0;" edge="1" parent="1" source="8ar8h3lFPwf3H2jaZOHm-22" target="8ar8h3lFPwf3H2jaZOHm-21">
          <mxGeometry relative="1" as="geometry" />
        </mxCell>
        <mxCell id="8ar8h3lFPwf3H2jaZOHm-22" value="LicenseClassID" style="ellipse;whiteSpace=wrap;html=1;align=center;" vertex="1" parent="1">
          <mxGeometry x="-500" y="810" width="100" height="40" as="geometry" />
        </mxCell>
        <mxCell id="8ar8h3lFPwf3H2jaZOHm-23" value="ClassName" style="ellipse;whiteSpace=wrap;html=1;align=center;" vertex="1" parent="1">
          <mxGeometry x="-410" y="870" width="100" height="40" as="geometry" />
        </mxCell>
        <mxCell id="8ar8h3lFPwf3H2jaZOHm-48" style="rounded=0;orthogonalLoop=1;jettySize=auto;html=1;exitX=0.5;exitY=0;exitDx=0;exitDy=0;entryX=1;entryY=0.75;entryDx=0;entryDy=0;endArrow=none;endFill=0;" edge="1" parent="1" source="8ar8h3lFPwf3H2jaZOHm-24" target="8ar8h3lFPwf3H2jaZOHm-21">
          <mxGeometry relative="1" as="geometry" />
        </mxCell>
        <mxCell id="8ar8h3lFPwf3H2jaZOHm-24" value="ClassDescription" style="ellipse;whiteSpace=wrap;html=1;align=center;" vertex="1" parent="1">
          <mxGeometry x="-130" y="840" width="100" height="50" as="geometry" />
        </mxCell>
        <mxCell id="8ar8h3lFPwf3H2jaZOHm-26" value="MinAllowedAge" style="ellipse;whiteSpace=wrap;html=1;align=center;" vertex="1" parent="1">
          <mxGeometry x="-260" y="890" width="100" height="40" as="geometry" />
        </mxCell>
        <mxCell id="8ar8h3lFPwf3H2jaZOHm-27" value="ValidityLength" style="ellipse;whiteSpace=wrap;html=1;align=center;" vertex="1" parent="1">
          <mxGeometry x="-370" y="950" width="100" height="40" as="geometry" />
        </mxCell>
        <mxCell id="8ar8h3lFPwf3H2jaZOHm-28" value="LicenseFees" style="ellipse;whiteSpace=wrap;html=1;align=center;" vertex="1" parent="1">
          <mxGeometry x="-190" y="950" width="100" height="40" as="geometry" />
        </mxCell>
        <mxCell id="8ar8h3lFPwf3H2jaZOHm-30" value="Exams" style="whiteSpace=wrap;html=1;align=center;" vertex="1" parent="1">
          <mxGeometry x="130" y="780" width="110" height="40" as="geometry" />
        </mxCell>
        <mxCell id="8ar8h3lFPwf3H2jaZOHm-34" style="rounded=0;orthogonalLoop=1;jettySize=auto;html=1;exitX=0.5;exitY=0;exitDx=0;exitDy=0;entryX=0.085;entryY=1.037;entryDx=0;entryDy=0;entryPerimeter=0;endArrow=none;endFill=0;" edge="1" parent="1" source="8ar8h3lFPwf3H2jaZOHm-19" target="8ar8h3lFPwf3H2jaZOHm-18">
          <mxGeometry relative="1" as="geometry" />
        </mxCell>
        <mxCell id="8ar8h3lFPwf3H2jaZOHm-40" style="rounded=0;orthogonalLoop=1;jettySize=auto;html=1;exitX=0.25;exitY=1;exitDx=0;exitDy=0;entryX=0.65;entryY=0.05;entryDx=0;entryDy=0;entryPerimeter=0;endArrow=none;endFill=0;" edge="1" parent="1" source="8ar8h3lFPwf3H2jaZOHm-15" target="8ar8h3lFPwf3H2jaZOHm-17">
          <mxGeometry relative="1" as="geometry" />
        </mxCell>
        <mxCell id="8ar8h3lFPwf3H2jaZOHm-43" style="rounded=0;orthogonalLoop=1;jettySize=auto;html=1;exitX=0;exitY=0;exitDx=0;exitDy=0;entryX=0.802;entryY=0.92;entryDx=0;entryDy=0;entryPerimeter=0;endArrow=none;endFill=0;" edge="1" parent="1" source="8ar8h3lFPwf3H2jaZOHm-1" target="8ar8h3lFPwf3H2jaZOHm-11">
          <mxGeometry relative="1" as="geometry" />
        </mxCell>
        <mxCell id="8ar8h3lFPwf3H2jaZOHm-47" style="rounded=0;orthogonalLoop=1;jettySize=auto;html=1;exitX=0.5;exitY=0;exitDx=0;exitDy=0;entryX=0.682;entryY=1.01;entryDx=0;entryDy=0;entryPerimeter=0;endArrow=none;endFill=0;" edge="1" parent="1" source="8ar8h3lFPwf3H2jaZOHm-26" target="8ar8h3lFPwf3H2jaZOHm-21">
          <mxGeometry relative="1" as="geometry" />
        </mxCell>
        <mxCell id="8ar8h3lFPwf3H2jaZOHm-49" style="rounded=0;orthogonalLoop=1;jettySize=auto;html=1;exitX=0.5;exitY=0;exitDx=0;exitDy=0;entryX=0.13;entryY=1.03;entryDx=0;entryDy=0;entryPerimeter=0;endArrow=none;endFill=0;" edge="1" parent="1" source="8ar8h3lFPwf3H2jaZOHm-23" target="8ar8h3lFPwf3H2jaZOHm-21">
          <mxGeometry relative="1" as="geometry" />
        </mxCell>
        <mxCell id="8ar8h3lFPwf3H2jaZOHm-51" style="rounded=0;orthogonalLoop=1;jettySize=auto;html=1;exitX=0.5;exitY=0;exitDx=0;exitDy=0;entryX=0.33;entryY=0.99;entryDx=0;entryDy=0;entryPerimeter=0;endArrow=none;endFill=0;" edge="1" parent="1" source="8ar8h3lFPwf3H2jaZOHm-27" target="8ar8h3lFPwf3H2jaZOHm-21">
          <mxGeometry relative="1" as="geometry" />
        </mxCell>
        <mxCell id="8ar8h3lFPwf3H2jaZOHm-52" style="rounded=0;orthogonalLoop=1;jettySize=auto;html=1;exitX=0.5;exitY=0;exitDx=0;exitDy=0;entryX=0.938;entryY=1.07;entryDx=0;entryDy=0;entryPerimeter=0;endArrow=none;endFill=0;" edge="1" parent="1" source="8ar8h3lFPwf3H2jaZOHm-28" target="8ar8h3lFPwf3H2jaZOHm-21">
          <mxGeometry relative="1" as="geometry" />
        </mxCell>
        <mxCell id="8ar8h3lFPwf3H2jaZOHm-58" style="rounded=0;orthogonalLoop=1;jettySize=auto;html=1;exitX=0;exitY=0.5;exitDx=0;exitDy=0;entryX=1;entryY=0.75;entryDx=0;entryDy=0;endArrow=none;endFill=0;" edge="1" parent="1" source="8ar8h3lFPwf3H2jaZOHm-54" target="8ar8h3lFPwf3H2jaZOHm-18">
          <mxGeometry relative="1" as="geometry" />
        </mxCell>
        <mxCell id="8ar8h3lFPwf3H2jaZOHm-54" value="Status" style="ellipse;whiteSpace=wrap;html=1;align=center;" vertex="1" parent="1">
          <mxGeometry x="690" y="480" width="135" height="50" as="geometry" />
        </mxCell>
        <mxCell id="8ar8h3lFPwf3H2jaZOHm-57" style="rounded=0;orthogonalLoop=1;jettySize=auto;html=1;exitX=0;exitY=0.5;exitDx=0;exitDy=0;entryX=1;entryY=0.25;entryDx=0;entryDy=0;endArrow=none;endFill=0;" edge="1" parent="1" source="8ar8h3lFPwf3H2jaZOHm-55" target="8ar8h3lFPwf3H2jaZOHm-18">
          <mxGeometry relative="1" as="geometry" />
        </mxCell>
        <mxCell id="8ar8h3lFPwf3H2jaZOHm-55" value="ApplicationFees" style="ellipse;whiteSpace=wrap;html=1;align=center;" vertex="1" parent="1">
          <mxGeometry x="690" y="400" width="135" height="50" as="geometry" />
        </mxCell>
      </root>
    </mxGraphModel>
  </diagram>
</mxfile>
